<svg xmlns="http://www.w3.org/2000/svg" width="512" height="512" viewBox="0 0 512 512"><g class="nc-icon-wrapper"><path d="M443.826 325.404v-21.626h-89.227v178.021h27.236c2.75 0 5 2.25 5 5l.025-156.142h25.09v156.142c0-2.75 2.25-5 5-5h27.26V327.317a4.956 4.956 0 0 1-.384-1.913z" fill="#CB7C52"/><path d="M467.119 303.778h-23.293v21.626c0 2.75 2.25 5 5 5h18.676c2.75 0 5-2.25 5-5v-27.008a5.382 5.382 0 0 1-5.383 5.382z" fill="#FFCFAB"/><path id="SVGCleanerId_0" d="M329.486 499.5c0 2.75 2.25 5 5 5h47.35c2.75 0 5-2.25 5-5v-12.701c0-2.75-2.25-5-5-5h-47.35c-2.75 0-5 2.25-5 5V499.5z" fill="#08375E"/><path opacity=".1" enable-background="new" d="M354.6 303.78h16.486V481.8H354.6z"/><path d="M456.353 132.61h-24.688a32.026 32.026 0 0 1-11.588 4.022C420.005 147.34 411.31 156 400.585 156c-10.721 0-19.414-8.653-19.492-19.355a32.064 32.064 0 0 1-11.684-4.034H250.734v25.817a2.855 2.855 0 0 1-2.857 2.857h98.67v137.111a5.38 5.38 0 0 0 5.383 5.382h115.189a5.381 5.381 0 0 0 5.383-5.382V148.758c0-8.904-7.245-16.148-16.149-16.148z" fill="#EF5A50"/><path d="M363.13 298.397V161.285h-16.584v137.111a5.38 5.38 0 0 0 5.383 5.382h16.584a5.38 5.38 0 0 1-5.383-5.381z" opacity=".1"/><path d="M415.494 136.963h-29.912a32.41 32.41 0 0 1-4.488-.318c.078 10.702 8.771 19.355 19.492 19.355 10.725 0 19.42-8.66 19.492-19.367-1.498.213-3.028.33-4.584.33z" fill="#FFAF68"/><path id="SVGCleanerId_0_1_" d="M329.486 499.5c0 2.75 2.25 5 5 5h47.35c2.75 0 5-2.25 5-5v-12.701c0-2.75-2.25-5-5-5h-47.35c-2.75 0-5 2.25-5 5V499.5z" fill="#08375E"/><path d="M411.951 499.5c0 2.75 2.25 5 5 5h47.35c2.75 0 5-2.25 5-5v-12.701c0-2.75-2.25-5-5-5h-47.35c-2.75 0-5 2.25-5 5V499.5z" fill="#08375E"/><path d="M206.927 161.285a2.854 2.854 0 0 1-2.855-2.857v-30.473a2.854 2.854 0 0 1 2.855-2.857h22.855v-10.476a2.856 2.856 0 0 1 2.857-2.857h15.236a2.855 2.855 0 0 1 2.857 2.857v43.806a2.855 2.855 0 0 1-2.857 2.857h-40.948z" fill="#FFCFAB"/><path d="M182.082 215.394c0 1.649-1.35 3-3 3h-33.414c-1.65 0-3-1.351-3-3V181.98c0-1.649 1.35-3 3-3h33.414c1.65 0 3 1.351 3 3v33.414z" fill="#FFF"/><path d="M182.082 215.394c0 1.649-1.35 3-3 3h-33.414c-1.65 0-3-1.351-3-3V181.98c0-1.649 1.35-3 3-3h33.414c1.65 0 3 1.351 3 3v33.414z" fill="#3EAF91"/><path d="M198.9 285.379a3.01 3.01 0 0 1-4.242 0l-16.326-16.329a3.01 3.01 0 0 1 0-4.242l26.123-26.124a3.01 3.01 0 0 1 4.242 0l16.328 16.329a3.006 3.006 0 0 1 0 4.242L198.9 285.379z" fill="#FFF"/><path d="M198.9 285.379a3.01 3.01 0 0 1-4.242 0l-16.326-16.329a3.01 3.01 0 0 1 0-4.242l26.123-26.124a3.01 3.01 0 0 1 4.242 0l16.328 16.329a3.006 3.006 0 0 1 0 4.242L198.9 285.379z" fill="#FFAF68"/><path d="M290.601 480.913h-20.225V499.5c0 2.75-2.25 5-5 5h25.225c2.75 0 5-2.25 5-5v-13.587c0-2.75-2.25-5-5-5z" fill="#34A1D7"/><path d="M112.757 331.113c-2.383 1.375-5.455.552-6.83-1.83L40.169 215.384c-1.375-2.382-.553-5.455 1.83-6.83l11.766-6.793a5.014 5.014 0 0 1 6.83 1.83l65.76 113.899a5.015 5.015 0 0 1-1.83 6.83l-11.768 6.793z" fill="#ABCCD3"/><path d="M270.377 499.5c0 2.75-2.25 5-5 5H133.855c-2.75 0-5-2.25-5-5V326.894c0-2.75 2.25-5 5-5h131.521c2.75 0 5 2.25 5 5V499.5h.001z" fill="#ABCCD3"/><path d="M156.085 499.5V326.894c0-2.75 2.25-5 5-5h-27.23c-2.75 0-5 2.25-5 5V499.5c0 2.75 2.25 5 5 5h27.23c-2.75 0-5-2.25-5-5z" opacity=".1"/><path d="M353.279 54.932c-9.732.549-17.463 8.608-17.463 18.497s7.73 17.948 17.463 18.497V54.932z" fill="#FFAF68"/><path d="M447.798 54.91v37.037c9.932-.334 17.887-8.486 17.887-18.519 0-10.032-7.955-18.184-17.887-18.518z" fill="#FFAF68"/><path d="M447.798 104.596c0 17.877-14.463 32.367-32.305 32.367h-29.912c-17.84 0-32.303-14.49-32.303-32.367v-64.73c0-17.877 14.463-32.365 32.303-32.365h29.912c17.842 0 32.305 14.488 32.305 32.365v64.73z" fill="#FFCFAB"/><path d="M415.494 7.5h-29.912c-17.84 0-32.303 14.488-32.303 32.365v16.073H389.3c8.602 0 16.412-3.37 22.201-8.854 5.787 5.484 13.598 8.854 22.201 8.854h14.096V39.865c0-17.877-14.463-32.365-32.304-32.365z" fill="#34A1D7"/><path d="M369.566 104.596v-64.73c0-17.877 14.463-32.365 32.303-32.365h-16.287c-17.84 0-32.303 14.488-32.303 32.365v64.73c0 17.877 14.463 32.367 32.303 32.367h16.287c-17.84 0-32.303-14.49-32.303-32.367z" opacity=".1"/><path d="M145.668 225.894h33.414c5.791 0 10.5-4.71 10.5-10.5V181.98c0-5.79-4.709-10.5-10.5-10.5h-33.414c-5.791 0-10.5 4.71-10.5 10.5v33.414c0 5.79 4.709 10.5 10.5 10.5zm4.5-39.414h24.414v24.414h-24.414V186.48z"/><path d="M173.027 274.353l16.33 16.332a10.435 10.435 0 0 0 7.422 3.069c2.807 0 5.441-1.091 7.424-3.071l26.127-26.124a10.434 10.434 0 0 0 3.07-7.425c0-2.807-1.09-5.443-3.07-7.425L214 233.38a10.43 10.43 0 0 0-7.424-3.071 10.43 10.43 0 0 0-7.426 3.072l-26.125 26.126c-4.088 4.093-4.088 10.751.002 14.846zm33.549-27.184l9.965 9.965-19.762 19.76-9.963-9.965 19.76-19.76z"/><path d="M230.554 230.27a7.588 7.588 0 0 0 2.201-5.309c0-1.97-.811-3.9-2.201-5.3a7.55 7.55 0 0 0-5.309-2.2c-1.971 0-3.9.8-5.301 2.2a7.581 7.581 0 0 0-2.199 5.3 7.59 7.59 0 0 0 2.199 5.309 7.576 7.576 0 0 0 5.301 2.191 7.589 7.589 0 0 0 5.309-2.191z"/><path d="M142.054 256.26a7.527 7.527 0 0 0-2.199 5.3c0 1.98.799 3.91 2.199 5.31a7.579 7.579 0 0 0 5.301 2.19c1.98 0 3.91-.8 5.311-2.19a7.559 7.559 0 0 0 2.199-5.31c0-1.97-.801-3.899-2.199-5.3-1.4-1.4-3.33-2.2-5.311-2.2-1.971 0-3.9.799-5.301 2.2z"/><path d="M204.605 196.8c1.971 0 3.91-.8 5.299-2.19 1.4-1.399 2.201-3.34 2.201-5.31s-.801-3.9-2.201-5.3a7.504 7.504 0 0 0-5.299-2.2c-1.98 0-3.91.8-5.301 2.2-1.4 1.39-2.199 3.33-2.199 5.3s.799 3.91 2.199 5.31a7.547 7.547 0 0 0 5.301 2.19z"/><path d="M290.601 473.413h-12.725v-78.41a7.5 7.5 0 0 0-15 0V497H136.355V329.394h126.521v26.61c0 4.143 3.357 7.5 7.5 7.5a7.5 7.5 0 0 0 7.5-7.5v-29.11c0-6.893-5.608-12.5-12.5-12.5H133.855c-.221 0-.436.021-.652.033-.115-.229-.223-.462-.354-.687l-65.76-113.899c-2.223-3.853-6.377-6.246-10.838-6.246-2.188 0-4.344.578-6.236 1.671l-11.766 6.793a12.41 12.41 0 0 0-5.818 7.592 12.416 12.416 0 0 0 1.242 9.483l65.758 113.899a12.547 12.547 0 0 0 10.84 6.246c2.186 0 4.342-.578 6.236-1.671l4.848-2.798V499.5c0 6.893 5.607 12.5 12.5 12.5h156.746c6.892 0 12.5-5.607 12.5-12.5v-13.587c0-6.892-5.607-12.5-12.5-12.5zm-179.43-150.045L47.914 213.799l7.436-4.293 63.26 109.569-7.439 4.293zM288.101 497h-10.225v-8.587h10.225V497z"/><path d="M388.191 79.569V74.67c0-4.143-3.357-7.5-7.5-7.5s-7.5 3.357-7.5 7.5v4.899c0 4.143 3.357 7.5 7.5 7.5s7.5-3.357 7.5-7.5z"/><path d="M420.384 67.17a7.499 7.499 0 0 0-7.5 7.5v4.899c0 4.143 3.357 7.5 7.5 7.5a7.5 7.5 0 0 0 7.5-7.5V74.67c0-4.143-3.357-7.5-7.5-7.5z"/><path d="M413.919 97.652c-4.022-.973-8.078 1.504-9.051 5.531a4.435 4.435 0 0 1-4.33 3.396 4.439 4.439 0 0 1-4.332-3.396c-.973-4.026-5.025-6.508-9.051-5.528a7.5 7.5 0 0 0-5.529 9.052c2.117 8.757 9.892 14.873 18.912 14.873s16.797-6.117 18.912-14.877a7.503 7.503 0 0 0-5.531-9.051z"/><path d="M446.664 196.5a7.5 7.5 0 0 0 7.5-7.5v-20.864a7.5 7.5 0 0 0-7.5-7.5 7.499 7.499 0 0 0-7.5 7.5V189c0 4.143 3.357 7.5 7.5 7.5z"/><path d="M467.502 337.904c6.892 0 12.5-5.607 12.5-12.5V148.758c0-13.039-10.609-23.647-23.648-23.647h-6.752a39.647 39.647 0 0 0 5.697-20.515v-6.428c10.375-3.425 17.887-13.217 17.887-24.739s-7.512-21.314-17.887-24.739v-8.824C455.298 17.884 437.441 0 415.494 0h-29.912c-21.947 0-39.803 17.884-39.803 39.865v8.966c-10.156 3.548-17.463 13.231-17.463 24.598s7.307 21.05 17.463 24.598v6.569c0 7.5 2.086 14.518 5.695 20.515h-42.389a7.5 7.5 0 0 0-7.5 7.5 7.5 7.5 0 0 0 7.5 7.5h58.461a39.69 39.69 0 0 0 6.797 2.724c2.857 11.841 13.535 20.666 26.242 20.666 12.717 0 23.4-8.84 26.248-20.695a39.575 39.575 0 0 0 6.697-2.694h22.822c4.768 0 8.648 3.879 8.648 8.647v147.52h-10.838V226a7.5 7.5 0 0 0-7.5-7.5 7.499 7.499 0 0 0-7.5 7.5v70.278h-85.117V161.285c0-4.143-3.357-7.5-7.5-7.5h-88.313V140.11h16.852c4.143 0 7.5-3.357 7.5-7.5s-3.357-7.5-7.5-7.5h-16.852v-10.488c0-5.711-4.646-10.357-10.357-10.357H232.64c-5.711 0-10.357 4.646-10.357 10.357v2.976h-15.355c-5.711 0-10.355 4.646-10.355 10.357v30.473c0 5.711 4.645 10.357 10.355 10.357h132.119v129.611c0 5.394 3.336 10.018 8.053 11.934v163.969h-12.613c-6.892 0-12.5 5.608-12.5 12.5V499.5c0 6.893 5.608 12.5 12.5 12.5h47.35c6.893 0 12.5-5.607 12.5-12.5l.025-161.344h10.09V499.5c0 6.893 5.607 12.5 12.5 12.5h47.35c6.893 0 12.5-5.607 12.5-12.5v-12.701c0-6.892-5.607-12.5-12.5-12.5h-12.59V337.904h15.79zM455.298 65.998a10.99 10.99 0 0 1 2.887 7.431c0 2.864-1.098 5.47-2.887 7.431V65.998zM345.779 80.369a11.003 11.003 0 0 1-2.463-6.94c0-2.63.928-5.042 2.463-6.94v13.88zm54.806 68.131c-3.56 0-6.754-1.565-8.949-4.037h17.898c-2.195 2.472-5.388 4.037-8.949 4.037zm39.713-43.904c0 13.712-11.127 24.867-24.805 24.867h-29.912c-13.676 0-24.803-11.155-24.803-24.867V63.438H389.3a39.595 39.595 0 0 0 22.201-6.771 39.593 39.593 0 0 0 22.201 6.771h6.596v41.158zm0-56.158h-6.596a24.681 24.681 0 0 1-17.043-6.799 7.5 7.5 0 0 0-10.316 0 24.681 24.681 0 0 1-17.043 6.799h-28.521v-8.573c0-13.711 11.127-24.865 24.803-24.865h29.912c13.678 0 24.805 11.154 24.805 24.865l-.001 8.573zM243.234 153.785h-31.662v-21.188h18.211c4.143 0 7.5-3.357 7.5-7.5v-5.833h5.951v34.521zm208.092 157.493h13.676v11.626h-13.676v-11.626zM379.335 497h-42.35v-7.701h42.35V497zm82.465 0h-42.35v-7.701h42.35V497zm-42.349-22.701V330.656c0-4.143-3.357-7.5-7.5-7.5h-25.09a7.5 7.5 0 0 0-7.5 7.5v143.642h-17.262v-163.02h74.227v14.126c0 1.045.143 2.055.385 3.025v145.869l-17.26.001z"/></g></svg>