<svg xmlns="http://www.w3.org/2000/svg" width="512" height="512" viewBox="0 0 512 512"><g class="nc-icon-wrapper"><path d="M412.169 300.212L331.251 380.7l-.01.009-21.525 21.411c-3.665 3.648-9.663 3.648-13.329 0L129.751 236.372c-3.665-3.648-3.665-9.615 0-13.262l102.916-102.368a196.547 196.547 0 0 0-13.233-.458c-40.141 0-77.418 12.184-108.307 33.032a51.93 51.93 0 0 1 4.934 22.165c0 28.504-22.824 51.607-50.976 51.607a50.3 50.3 0 0 1-17.197-3.019c-13.789 26.443-21.587 56.475-21.587 88.321 0 106.1 86.468 192.108 193.133 192.108s193.133-86.009 193.133-192.108c0-4.091-.145-8.15-.398-12.178z" fill="#E6E9ED"/><g opacity=".1"><path d="M115.306 166.671c31.239-26.712 71.157-43.665 114.978-46.079a197.085 197.085 0 0 0-10.851-.308c-40.141 0-77.418 12.184-108.307 33.032a51.676 51.676 0 0 1 4.18 13.355z"/><path d="M48.002 312.392c0-30.68 7.236-59.675 20.094-85.399-.997.059-1.999.097-3.011.097a50.3 50.3 0 0 1-17.197-3.019c-13.789 26.443-21.587 56.475-21.587 88.321 0 106.1 86.468 192.108 193.133 192.108 3.643 0 7.258-.109 10.851-.308-101.617-5.598-182.283-89.324-182.283-191.8z"/></g><path d="M151.623 258.127c-12.022 14.846-19.224 33.717-19.224 54.265 0 47.814 38.966 86.573 87.034 86.573 20.658 0 39.631-7.163 54.556-19.123L151.623 258.127z" fill="#FFF"/><path d="M317.921 380.7L151.286 214.951c-3.666-3.648-3.666-9.614 0-13.261l-21.535 21.42c-3.665 3.646-3.665 9.613 0 13.262L296.387 402.12c3.666 3.648 9.664 3.648 13.329 0l21.525-21.411c-3.667 3.639-9.656 3.636-13.32-.009z" fill="#3EAF91"/><path d="M160.957 224.57l-9.671-9.619c-3.666-3.648-3.666-9.614 0-13.261l-21.535 21.42c-3.665 3.646-3.665 9.613 0 13.262l15.601 15.518c-2.952-3.675-2.724-9.087.692-12.486l14.913-14.834z" opacity=".1"/><path d="M422.445 243.339l-75.402 75c-5.162 5.133-13.6 5.133-18.76 0l-4.119-4.096c-5.161-5.131-5.161-13.529 0-18.66l61.188-60.867-4.962-4.939-73.869 73.477c-5.162 5.133-13.604 5.133-18.758 0l-4.123-4.098c-5.156-5.132-5.156-13.529.001-18.66l73.87-73.476-4.964-4.938-73.866 73.476c-5.159 5.132-13.601 5.133-18.761 0l-4.122-4.1c-5.159-5.13-5.159-13.529 0-18.659l73.869-73.474-4.965-4.937-65.169 64.822c-5.159 5.131-13.601 5.131-18.76 0l-4.12-4.098c-5.161-5.132-5.161-13.529-.002-18.661l84.855-84.504h-21.763c-11.72 0-21.225-9.452-21.225-21.114 0-3.122.7-6.076 1.924-8.743l-7.848-7.807c-3.666-3.646-9.665-3.646-13.33 0L151.286 201.69c-3.666 3.646-3.666 9.613 0 13.261L317.921 380.7c3.667 3.647 9.664 3.647 13.33 0L439.23 273.294c3.664-3.647 3.664-9.611 0-13.259l-16.785-16.696z" fill="#FCC96C"/><path d="M275.826 110.204a9.377 9.377 0 0 1 2.864-1.927c.266-2.183.869-4.26 1.753-6.186l-7.848-7.807c-3.666-3.646-9.665-3.646-13.33 0L151.286 201.69c-3.666 3.646-3.666 9.613 0 13.261l12.855 12.786c-.748-3.106.08-6.521 2.505-8.934l109.18-108.599z" opacity=".1" enable-background="new"/><ellipse cx="46.889" cy="33.379" rx="25.473" ry="25.878" fill="#D7F7FF"/><path d="M38.002 33.379c0-11.342 7.184-20.973 17.18-24.469A25.077 25.077 0 0 0 46.89 7.5c-14.07 0-25.474 11.586-25.474 25.879 0 14.292 11.403 25.878 25.474 25.878 2.904 0 5.691-.501 8.292-1.41-9.996-3.496-17.18-13.127-17.18-24.468z" opacity=".1"/><path d="M450.048 456.433c0 16.526-13.189 29.923-29.452 29.923-16.269 0-29.455-13.396-29.455-29.923 0-16.525 13.186-29.923 29.455-29.923 16.262 0 29.452 13.397 29.452 29.923z" fill="#B1E8FF"/><ellipse cx="65.082" cy="175.48" rx="50.975" ry="51.607" fill="#B1E8FF"/><path d="M76.026 211c-28.154 0-50.974-23.104-50.974-51.607a51.954 51.954 0 0 1 4.268-20.676c-9.386 9.361-15.209 22.372-15.209 36.765 0 28.504 22.819 51.607 50.974 51.607 20.89 0 38.836-12.728 46.71-30.937C102.592 205.331 89.965 211 76.026 211z" opacity=".1"/><path d="M133.473 104.88a3.824 3.824 0 0 1-3.653-2.721c-6-19.475-10.12-23.641-29.385-29.704-1.6-.504-2.69-2-2.69-3.698a3.868 3.868 0 0 1 2.69-3.694C119.7 59 123.82 54.834 129.82 35.361a3.83 3.83 0 0 1 3.653-2.723 3.836 3.836 0 0 1 3.658 2.723C143.13 54.834 147.245 59 166.51 65.063a3.863 3.863 0 0 1 2.689 3.694 3.864 3.864 0 0 1-2.689 3.698c-19.265 6.063-23.38 10.229-29.379 29.704a3.834 3.834 0 0 1-3.658 2.721z" fill="#FFBB4A"/><path d="M467.58 397.595a3.246 3.246 0 0 1-3.1-2.309c-5.09-16.522-8.586-20.059-24.932-25.202a3.28 3.28 0 0 1-2.282-3.138c0-1.436.926-2.708 2.282-3.135 16.346-5.145 19.842-8.679 24.932-25.201a3.25 3.25 0 0 1 3.1-2.31c1.425 0 2.681.938 3.104 2.31 5.09 16.522 8.582 20.057 24.927 25.201a3.279 3.279 0 0 1 2.281 3.135c0 1.44-.923 2.711-2.281 3.138-16.345 5.143-19.837 8.68-24.927 25.202a3.251 3.251 0 0 1-3.104 2.309z" fill="#FFBB4A"/><path d="M483.257 164.191l-87.649-87.188c-5.16-5.131-13.598-5.131-18.761 0l-12.791 12.722h-64.311c-11.721 0-21.226 9.453-21.226 21.109 0 11.662 9.505 21.114 21.225 21.114h21.867l-84.959 84.504c-5.159 5.132-5.159 13.529.002 18.661l4.12 4.098c5.159 5.131 13.6 5.131 18.76 0l65.169-64.822 4.965 4.937-73.869 73.474c-5.159 5.13-5.159 13.529 0 18.659l4.122 4.1c5.16 5.133 13.602 5.132 18.761 0l73.866-73.476 4.964 4.938-73.87 73.476c-5.157 5.131-5.157 13.528-.001 18.66l4.123 4.098c5.154 5.133 13.596 5.133 18.758 0l73.869-73.477 4.962 4.939-61.188 60.867c-5.161 5.131-5.161 13.529 0 18.66l4.119 4.096c5.16 5.133 13.598 5.133 18.76 0l136.214-135.488c5.161-5.133 5.161-13.529-.001-18.661z" fill="#EF5A50"/><path d="M391.012 415.909c19.008-31.123 29.055-66.918 29.055-103.518 0-3.097-.078-6.175-.222-9.236l24.677-24.546a16.738 16.738 0 0 0 4.957-11.944 16.74 16.74 0 0 0-4.959-11.947l-11.44-11.379 18.211-18.114a7.5 7.5 0 0 0-10.579-10.634l-98.958 98.431c-2.219 2.205-5.965 2.205-8.184 0l-4.119-4.097a5.61 5.61 0 0 1-1.659-4.011c0-1.523.589-2.948 1.66-4.013l61.188-60.867a7.497 7.497 0 0 0 .002-10.632l-4.962-4.939a7.499 7.499 0 0 0-10.58-.002l-73.868 73.475c-2.219 2.207-5.964 2.208-8.183-.001l-4.119-4.094a5.622 5.622 0 0 1-1.658-4.015 5.62 5.62 0 0 1 1.657-4.013l73.87-73.476a7.499 7.499 0 0 0 0-10.634l-4.964-4.938a7.5 7.5 0 0 0-10.578 0l-73.866 73.476c-2.219 2.205-5.966 2.205-8.183 0l-4.123-4.101a5.616 5.616 0 0 1-1.657-4.012c0-1.523.589-2.948 1.658-4.012l73.869-73.474a7.5 7.5 0 0 0-.001-10.635l-4.965-4.936a7.5 7.5 0 0 0-10.577.001l-65.169 64.821c-2.217 2.207-5.965 2.206-8.182.001l-4.121-4.099a5.618 5.618 0 0 1-1.659-4.013 5.62 5.62 0 0 1 1.658-4.013l84.959-84.504a7.5 7.5 0 0 0-5.289-12.818h-21.867c-7.567 0-13.725-6.107-13.725-13.614 0-7.504 6.157-13.609 13.726-13.609h64.311a7.495 7.495 0 0 0 5.289-2.183l12.789-12.719c2.22-2.207 5.967-2.206 8.185-.003l87.65 87.189c1.07 1.064 1.659 2.487 1.659 4.01s-.589 2.947-1.66 4.013l-11.256 11.194a7.5 7.5 0 0 0 10.578 10.635l11.255-11.192c3.923-3.9 6.083-9.103 6.083-14.649s-2.16-10.748-6.082-14.646l-87.65-87.188c-8.085-8.04-21.245-8.042-29.338.001L360.96 82.225h-61.216c-7.896 0-15.056 3.189-20.253 8.342l-1.608-1.601c-3.188-3.17-7.433-4.916-11.953-4.916-4.522 0-8.767 1.746-11.954 4.917l-21.527 21.413a.027.027 0 0 0-.008.007l-2.676 2.661a203.416 203.416 0 0 0-10.332-.265c-38.748 0-74.963 10.987-105.67 29.992-10.49-15.904-28.392-26.406-48.679-26.406-32.242 0-58.474 26.518-58.474 59.111a59.238 59.238 0 0 0 31.17 52.246c-12.16 25.719-18.981 54.411-18.981 84.664C18.801 422.456 108.805 512 219.434 512c28.409 0 55.869-5.79 81.614-17.209 24.87-11.031 46.909-26.735 65.504-46.676a7.501 7.501 0 0 0-10.971-10.231c-17.209 18.455-37.603 32.987-60.614 43.194C271.148 491.644 245.734 497 219.434 497c-102.358 0-185.633-82.815-185.633-184.608 0-28.392 6.505-55.291 18.07-79.344a57.766 57.766 0 0 0 13.214 1.541c32.243 0 58.476-26.516 58.476-59.107a59.424 59.424 0 0 0-3.166-19.147c27.482-17.314 59.823-27.655 94.496-28.488l-90.43 89.948a16.737 16.737 0 0 0-4.959 11.944c0 4.522 1.761 8.766 4.96 11.951l17.275 17.183c-10.608 15.203-16.838 33.649-16.838 53.519 0 32.995 16.896 62.999 45.197 80.261a7.505 7.505 0 0 0 10.309-2.498 7.502 7.502 0 0 0-2.498-10.309c-23.799-14.516-38.008-39.732-38.008-67.454 0-15.739 4.674-30.4 12.683-42.731l109.801 109.215c-12.397 7.95-27.132 12.59-42.949 12.59-4.143 0-7.5 3.357-7.5 7.5s3.357 7.5 7.5 7.5c19.982 0 38.531-6.209 53.816-16.78l17.847 17.752c3.189 3.172 7.434 4.919 11.955 4.919s8.767-1.747 11.953-4.918l21.525-21.411.01-.009 68.431-68.068c-.959 31.898-10.154 62.951-26.76 90.142a7.5 7.5 0 1 0 12.801 7.816zM65.085 219.589c-23.972 0-43.474-19.786-43.474-44.107 0-24.323 19.502-44.111 43.474-44.111 23.973 0 43.476 19.788 43.476 44.111 0 24.321-19.503 44.107-43.476 44.107zm239.341 177.215a1.942 1.942 0 0 1-1.374.552c-.307 0-.893-.071-1.376-.553L135.042 231.057c-.446-.444-.54-.961-.54-1.316s.094-.87.538-1.313l9.666-9.614a17 17 0 0 0 1.291 1.455l166.635 165.749c.444.441.913.849 1.396 1.234l-9.602 9.552zm21.535-21.42a1.943 1.943 0 0 1-1.375.552 1.94 1.94 0 0 1-1.376-.553L156.576 209.635a1.82 1.82 0 0 1-.54-1.314c.001-.354.094-.87.539-1.313l107.98-107.405c.482-.479 1.069-.552 1.376-.552s.894.072 1.376.552l4.523 4.5a28.466 28.466 0 0 0-.81 6.732c0 15.778 12.886 28.614 28.725 28.614h3.691l-72.072 71.686c-3.921 3.9-6.081 9.103-6.08 14.65.001 5.546 2.161 10.748 6.082 14.646l4.12 4.098a20.7 20.7 0 0 0 12.543 5.926c-2.34 3.406-3.599 7.439-3.599 11.674 0 5.547 2.159 10.749 6.08 14.647l4.122 4.1c4.861 4.837 11.558 6.762 17.88 5.788a20.956 20.956 0 0 0-.238 3.16c0 5.546 2.157 10.747 6.08 14.651l4.118 4.093c8.083 8.048 21.244 8.053 29.339.003l1.135-1.128a20.47 20.47 0 0 0 5.931 12.118l4.118 4.095c4.044 4.022 9.355 6.034 14.668 6.033 5.312 0 10.625-2.012 14.67-6.033l70.112-69.739 11.495 11.434c.445.443.539.959.539 1.314 0 .354-.094.87-.537 1.312L325.961 375.384z"/><path d="M46.89 66.757c18.181 0 32.972-14.974 32.972-33.378C79.861 14.974 65.07 0 46.89 0 28.708 0 13.916 14.974 13.916 33.379c0 18.404 14.792 33.378 32.974 33.378zm0-51.757c9.909 0 17.972 8.245 17.972 18.379S56.8 51.757 46.89 51.757c-9.911 0-17.974-8.244-17.974-18.378S36.979 15 46.89 15z"/><path d="M420.596 419.01c-20.377 0-36.955 16.788-36.955 37.423s16.578 37.423 36.955 37.423c20.376 0 36.952-16.788 36.952-37.423s-16.576-37.423-36.952-37.423zm0 59.845c-12.107 0-21.955-10.059-21.955-22.423s9.849-22.423 21.955-22.423c12.104 0 21.952 10.059 21.952 22.423 0 12.365-9.848 22.423-21.952 22.423z"/><path d="M98.183 79.609c16.907 5.321 19.193 7.635 24.464 24.742 1.468 4.802 5.818 8.028 10.826 8.028 4.999 0 9.35-3.22 10.826-8.013 5.274-17.124 7.561-19.438 24.462-24.758 4.748-1.494 7.938-5.855 7.938-10.853 0-4.998-3.191-9.358-7.938-10.849-16.902-5.319-19.188-7.633-24.464-24.758-1.477-4.793-5.828-8.013-10.825-8.013-5.006 0-9.356 3.227-10.82 8.015-5.276 17.121-7.563 19.435-24.467 24.756-4.75 1.493-7.941 5.853-7.941 10.849 0 4.997 3.19 9.358 7.939 10.854zm35.292-32.059c4.58 11.056 10.1 16.589 21.122 21.209-11.018 4.619-16.542 10.155-21.122 21.209-4.581-11.055-10.104-16.59-21.126-21.209 11.02-4.619 16.543-10.154 21.126-21.209z"/><path d="M497.863 356.657c-13.968-4.396-15.65-6.1-20.013-20.261-1.403-4.543-5.531-7.596-10.271-7.596a10.69 10.69 0 0 0-10.268 7.602c-4.36 14.154-6.043 15.857-20.015 20.255-4.505 1.417-7.531 5.552-7.531 10.289 0 4.738 3.026 8.875 7.531 10.292 13.971 4.396 15.654 6.1 20.01 20.238 1.392 4.557 5.52 7.618 10.272 7.618 4.743 0 8.87-3.054 10.272-7.601 4.361-14.157 6.044-15.861 20.007-20.255 4.506-1.416 7.533-5.552 7.533-10.293.003-4.738-3.025-8.873-7.527-10.288zm-30.281 25.44c-3.464-7.388-7.73-11.661-15.104-15.149 7.374-3.487 11.639-7.76 15.104-15.149 3.464 7.39 7.727 11.661 15.101 15.149-7.372 3.487-11.637 7.759-15.101 15.149z"/><path d="M255.837 153.304c1.465 1.464 3.385 2.196 5.304 2.196s3.839-.732 5.304-2.196a7.5 7.5 0 0 0 0-10.607l-7-7a7.5 7.5 0 0 0-10.607 10.607l6.999 7z"/><path d="M233.837 189.304c1.465 1.464 3.385 2.196 5.304 2.196s3.839-.732 5.304-2.196a7.5 7.5 0 0 0 0-10.607l-7-7a7.5 7.5 0 0 0-10.607 10.607l6.999 7z"/><path d="M198.444 190.696a7.5 7.5 0 0 0-10.607 10.607l7 7c1.465 1.464 3.385 2.196 5.304 2.196s3.839-.732 5.304-2.196a7.5 7.5 0 0 0 0-10.607l-7.001-7z"/><path d="M321.444 334.696a7.5 7.5 0 0 0-10.607 10.607l7 7a7.481 7.481 0 0 0 5.304 2.196 7.5 7.5 0 0 0 5.304-12.803l-7.001-7z"/></g></svg>