<svg xmlns="http://www.w3.org/2000/svg" width="512" height="512" viewBox="0 0 512 512"><g class="nc-icon-wrapper"><path d="M51.635 212.846c5.072-1.549 10.69-2.418 16.605-2.418 5.916 0 11.533.869 16.606 2.417 1.183-.905 1.88-2.376 1.722-4.04l-1.378-14.433c-.261-2.737-2.725-4.978-5.475-4.978H56.767c-2.75 0-5.214 2.24-5.475 4.978l-1.379 14.433c-.159 1.664.539 3.135 1.722 4.041z" fill="#3EAF91"/><path d="M95.331 342.183v-30.968c0-2.75 2.25-5 5-5h12.771c-1.981-17.912-7.213-34.347-15.038-46.587a2.761 2.761 0 0 1 .643-3.691c6.501-5.023 10.082-11.436 10.082-18.054 0-15.14-18.19-27.455-40.549-27.455s-40.547 12.316-40.547 27.455c0 6.617 3.579 13.03 10.08 18.054a2.76 2.76 0 0 1 .643 3.691c-10.127 15.843-15.936 38.7-15.936 62.71 0 8.06.646 15.962 1.903 23.566H97.03c-1.033-.918-1.699-2.24-1.699-3.721z" fill="#E6E9ED"/><path d="M95.331 342.183v-30.968c0-2.75 2.25-5 5-5h12.771c-1.981-17.912-7.213-34.347-15.038-46.587a2.761 2.761 0 0 1 .643-3.691c6.501-5.023 10.082-11.436 10.082-18.054 0-.183-.005-.365-.011-.546H27.703c-.006.181-.01.363-.01.546 0 6.617 3.579 13.03 10.08 18.054a2.76 2.76 0 0 1 .643 3.691c-10.127 15.843-15.936 38.7-15.936 62.71 0 8.06.646 15.962 1.903 23.566H97.03c-1.033-.918-1.699-2.24-1.699-3.721z" fill="#3EAF91"/><path d="M22.48 322.338c0 8.06.646 15.962 1.903 23.566h22c-1.257-7.604-1.903-15.506-1.903-23.566 0-24.01 5.809-46.867 15.936-62.71a2.76 2.76 0 0 0-.643-3.691c-6.501-5.023-10.08-11.436-10.08-18.054 0-12.559 12.519-23.165 29.547-26.42a58.637 58.637 0 0 0-11-1.035c-22.359 0-40.547 12.316-40.547 27.455 0 6.617 3.579 13.03 10.08 18.054a2.76 2.76 0 0 1 .643 3.691c-10.127 15.843-15.936 38.7-15.936 62.71z" opacity=".1" enable-background="new"/><path d="M468.314 199.48a63.255 63.255 0 0 0 5.283-25.369c0-1.802-1.439-3.261-3.214-3.261H346.881c-1.775 0-3.214 1.459-3.214 3.261 0 8.946 1.865 17.55 5.283 25.369h119.364z" fill="#3EAF91"/><path d="M370.353 199.48a63.255 63.255 0 0 1-5.283-25.369c0-1.802 1.439-3.261 3.214-3.261H346.88c-1.775 0-3.214 1.459-3.214 3.261 0 8.946 1.865 17.55 5.283 25.369h21.404z" opacity=".1" enable-background="new"/><path d="M372.856 255.843h71.551c17.996-11.237 29.189-31.145 29.189-53.102 0-1.802-1.439-3.261-3.214-3.261H346.881c-1.775 0-3.214 1.459-3.214 3.261 0 21.957 11.192 41.864 29.189 53.102z" fill="#EF5A50"/><path d="M372.856 255.843h21.404c-17.997-11.237-29.189-31.145-29.189-53.102 0-1.802 1.439-3.261 3.214-3.261h-21.404c-1.775 0-3.214 1.459-3.214 3.261 0 21.957 11.192 41.864 29.189 53.102z" opacity=".1" enable-background="new"/><path d="M97.03 345.904h27.022c1.033-.918 1.699-2.24 1.699-3.722v-30.968c0-2.75-2.25-5-5-5h-20.42c-2.75 0-5 2.25-5 5v30.968c0 1.482.666 2.804 1.699 3.722z" fill="#ABCCD3"/><path d="M223.616 345.904h27.021c1.033-.918 1.699-2.24 1.699-3.722v-30.968c0-2.75-2.25-5-5-5h-20.419c-2.75 0-5 2.25-5 5v30.968c0 1.482.666 2.804 1.699 3.722z" fill="#ABCCD3"/><path d="M246.965 180.624v20.797h23.987v-20.797c0-18.666-16.14-33.852-35.98-33.852h-36.08c-19.84 0-35.98 16.271-35.98 36.271v104.651h23.987V183.043c0-6.668 5.38-12.091 11.994-12.091h36.08c6.5 0 11.992 4.429 11.992 9.672z" fill="#E6E9ED"/><path d="M279 219.634c0 2.75-2.25 5-5 5h-30.661c-2.75 0-5-2.25-5-5v-13.213c0-2.75 2.25-5 5-5H274c2.75 0 5 2.25 5 5v13.213z" fill="#ABCCD3"/><path d="M201.557 345.904v-53.21c0-2.75-2.25-5-5-5h-45.446c-2.75 0-5 2.25-5 5v53.21h55.446z" fill="#ABCCD3"/><path d="M44.377 426.867c0 17.384 13.979 31.477 31.223 31.477h192.654c17.245 0 31.225-14.093 31.225-31.477v-51.723H44.377v51.723z" fill="#ABCCD3"/><path d="M71.898 426.867v-51.723H44.377v51.723c0 17.384 13.979 31.477 31.223 31.477h27.521c-17.244 0-31.223-14.093-31.223-31.477z" opacity=".1" enable-background="new"/><path d="M327.581 441.063c0 9.544 7.674 17.28 17.141 17.28h105.761c9.465 0 17.14-7.736 17.14-17.28v-65.919H327.581v65.919z" fill="#ABCCD3"/><path d="M349 441.063v-65.919h-21.419v65.919c0 9.544 7.674 17.28 17.141 17.28h21.419c-9.467.001-17.141-7.736-17.141-17.28z" opacity=".1" enable-background="new"/><path d="M286.269 283.461h177.839l9.437-22.992c1.044-2.545-.352-4.626-3.102-4.626h-190.51c-2.75 0-4.146 2.081-3.102 4.626l9.438 22.992z" fill="#B1E8FF"/><path d="M286.269 283.461h27.109l-9.437-22.992c-1.044-2.545.352-4.626 3.102-4.626h-27.109c-2.75 0-4.146 2.081-3.102 4.626l9.437 22.992z" opacity=".1" enable-background="new"/><path d="M287.099 313.103h176.178l10.268-25.017c1.044-2.544-.352-4.626-3.102-4.626h-190.51c-2.75 0-4.146 2.082-3.102 4.626l10.268 25.017z" fill="#FFBB4A"/><path d="M287.099 313.103h27.109l-10.268-25.017c-1.044-2.544.352-4.626 3.102-4.626h-27.109c-2.75 0-4.146 2.082-3.102 4.626l10.268 25.017z" opacity=".1" enable-background="new"/><path d="M288.396 345.904H461.98l11.564-28.176c1.044-2.544-.352-4.625-3.102-4.625h-190.51c-2.75 0-4.146 2.081-3.102 4.625l11.566 28.176z" fill="#86D5B5"/><path d="M288.396 345.904h27.109l-11.565-28.176c-1.044-2.544.352-4.625 3.102-4.625h-27.109c-2.75 0-4.146 2.081-3.102 4.625l11.565 28.176z" opacity=".1" enable-background="new"/><path d="M504.5 365.144c0 5.5-4.5 10-10 10h-477c-5.5 0-10-4.5-10-10v-9.24c0-5.5 4.5-10 10-10h477c5.5 0 10 4.5 10 10v9.24z" fill="#78A7AF"/><path d="M33 365.144v-9.24c0-5.5 4.5-10 10-10H17.5c-5.5 0-10 4.5-10 10v9.24c0 5.5 4.5 10 10 10H43c-5.5 0-10-4.5-10-10z" opacity=".1"/><path d="M318.761 159.16a2.383 2.383 0 0 1-2.275-1.676c-3.732-12.004-6.297-14.57-18.287-18.309a2.387 2.387 0 0 1 0-4.556c11.989-3.738 14.554-6.305 18.287-18.309a2.382 2.382 0 0 1 4.55 0c3.735 12.004 6.298 14.57 18.288 18.309a2.386 2.386 0 0 1 0 4.556c-11.99 3.738-14.553 6.305-18.288 18.309a2.379 2.379 0 0 1-2.275 1.676z" fill="#FCC96C"/><path d="M364.761 95.191a2.224 2.224 0 0 1-2.123-1.563c-3.481-11.197-5.874-13.591-17.058-17.078a2.227 2.227 0 0 1 0-4.25c11.184-3.487 13.576-5.882 17.058-17.079a2.223 2.223 0 0 1 4.246 0c3.484 11.197 5.875 13.592 17.059 17.079a2.227 2.227 0 0 1 0 4.25c-11.185 3.487-13.575 5.881-17.059 17.078a2.22 2.22 0 0 1-2.123 1.563z" fill="#FCC96C"/><path d="M68.24 310.255c14.503 0 26.301-11.798 26.301-26.3s-11.798-26.301-26.301-26.301c-14.502 0-26.301 11.799-26.301 26.301 0 14.502 11.799 26.3 26.301 26.3zm0-37.601c6.232 0 11.301 5.069 11.301 11.301 0 6.23-5.069 11.3-11.301 11.3-6.231 0-11.301-5.069-11.301-11.3s5.07-11.301 11.301-11.301z"/><path d="M494.5 338.404h-21.335l7.317-17.828c1.463-3.565 1.158-7.315-.837-10.291-1.306-1.948-3.202-3.339-5.432-4.076l6.269-15.274c1.463-3.565 1.158-7.316-.837-10.292-1.163-1.734-2.796-3.021-4.712-3.807l5.55-13.521c1.462-3.565 1.157-7.316-.838-10.292-1.995-2.975-5.349-4.681-9.202-4.681h-6.028c10.555-12.407 16.682-28.442 16.682-45.602a10.75 10.75 0 0 0-3.167-7.629 70.982 70.982 0 0 0 3.167-21.001c0-5.934-4.807-10.761-10.714-10.761H346.881c-5.908 0-10.714 4.827-10.714 10.761a70.95 70.95 0 0 0 3.168 21.001 10.746 10.746 0 0 0-3.168 7.629c0 17.16 6.127 33.193 16.682 45.602h-72.916c-3.853 0-7.207 1.706-9.202 4.681-1.995 2.976-2.301 6.727-.838 10.293l5.549 13.52c-1.916.785-3.549 2.072-4.712 3.807-1.995 2.976-2.3 6.727-.837 10.292l6.269 15.274c-2.23.737-4.126 2.128-5.432 4.076-1.995 2.975-2.3 6.725-.837 10.291l7.317 17.828h-17.374v-27.189c0-6.893-5.607-12.5-12.5-12.5h-20.419c-6.893 0-12.5 5.607-12.5 12.5v4.232h-5.36v-22.753c0-6.892-5.607-12.5-12.5-12.5h-2.158v-97.151c0-2.531 2.016-4.591 4.494-4.591h36.08c2.857 0 4.493 1.707 4.493 2.172v13.919c-5.001 1.635-8.626 6.338-8.626 11.878v13.213c0 6.893 5.607 12.5 12.5 12.5H274c6.893 0 12.5-5.607 12.5-12.5v-13.213c0-5.323-3.35-9.867-8.048-11.666v-14.131c0-22.802-19.505-41.352-43.48-41.352h-36.08c-23.975 0-43.48 19.636-43.48 43.771V203c0 4.143 3.358 7.5 7.5 7.5s7.5-3.357 7.5-7.5v-19.957c0-15.864 12.776-28.771 28.48-28.771h36.08c15.704 0 28.48 11.821 28.48 26.352v13.297h-8.987v-13.297c0-9.469-8.745-17.172-19.493-17.172h-36.08c-10.749 0-19.494 8.788-19.494 19.591v97.151h-8.987V237c0-4.143-3.358-7.5-7.5-7.5s-7.5 3.357-7.5 7.5v43.194h-4.301c-6.892 0-12.5 5.608-12.5 12.5v22.753h-5.36v-4.232c0-6.893-5.607-12.5-12.5-12.5h-1.1c-2.334-14.844-6.829-28.536-13.141-39.604 6.032-5.758 9.434-12.753 9.748-20.111.016-.372.002-2.069-.004-2.152-.466-12.195-9.128-22.637-22.213-28.599-.004-.053-.003-.104-.008-.157l-1.377-14.433c-.63-6.597-6.314-11.765-12.941-11.765H56.767c-6.627 0-12.312 5.168-12.941 11.765l-1.379 14.434c-.005.052-.004.105-.008.157-13.076 5.958-21.735 16.392-22.21 28.578-.006.089-.021 1.8-.005 2.172.314 7.359 3.715 14.354 9.747 20.111-9.56 16.765-14.99 39.527-14.99 63.227 0 5.463.29 10.857.845 16.151C6.959 339.336 0 346.82 0 355.904v9.24c0 9.649 7.851 17.5 17.5 17.5h19.377v44.223c0 21.492 17.371 38.977 38.723 38.977h192.654c21.353 0 38.725-17.484 38.725-38.977v-44.223h13.102v58.419c0 13.664 11.054 24.78 24.641 24.78h105.761c13.586 0 24.64-11.116 24.64-24.78v-58.419H494.5c9.649 0 17.5-7.851 17.5-17.5v-9.24c0-9.649-7.851-17.5-17.5-17.5zm-223-121.27h-25.661v-8.213H271.5v8.213zm194.438-38.783a55.659 55.659 0 0 1-2.76 13.63H354.084a55.706 55.706 0 0 1-2.76-13.63h114.614zM351.325 206.98h114.613c-1.27 16.925-10.093 32.077-23.753 41.362h-67.104c-13.663-9.286-22.487-24.438-23.756-41.362zm112.933 56.362l-5.179 12.618H450a7.5 7.5 0 0 0 0 15h14.258l-6.01 14.643h-166.12l-6.01-14.643H412a7.5 7.5 0 0 0 0-15H291.297l-5.179-12.618h178.14zm-178.139 57.261h178.139l-7.306 17.801H293.425l-7.306-17.801zm-41.283-6.888v24.689h-15.419v-24.689h15.419zm-30.419 16.732v7.957h-5.36v-7.957h5.36zm-20.36-35.253v43.21h-40.446v-43.21h40.446zm-55.446 35.253v7.957h-5.36v-7.957h5.36zm-20.36-16.732v24.689h-15.42v-24.689h15.42zM58.585 196.894h19.311l.651 6.816a67.841 67.841 0 0 0-10.307-.783c-3.55 0-6.994.274-10.307.783l.652-6.816zm9.655 21.034c13.205 0 24.893 4.967 30.127 11.909H38.116c5.233-6.943 16.92-11.909 30.124-11.909zm-25.881 32.074c-2.069-1.599-3.721-3.344-4.915-5.165h61.595c-1.195 1.821-2.848 3.566-4.917 5.166a10.224 10.224 0 0 0-2.376 13.664c6.01 9.403 10.364 21.571 12.725 35.048h-4.139c-6.893 0-12.5 5.607-12.5 12.5v27.189H30.907a139.324 139.324 0 0 1-.926-16.066c0-22.616 5.378-44.001 14.754-58.67a10.222 10.222 0 0 0-2.376-13.666zm417.764 191.061c0 5.393-4.324 9.78-9.64 9.78H344.722c-5.316 0-9.641-4.388-9.641-9.78v-58.419h125.042v58.419zM497 365.144c0 1.355-1.145 2.5-2.5 2.5H273a7.5 7.5 0 0 0 0 15h18.979v44.223c0 13.221-10.643 23.977-23.725 23.977H75.601c-13.081 0-23.723-10.756-23.723-23.977v-44.223H233a7.5 7.5 0 0 0 0-15H17.5c-1.355 0-2.5-1.145-2.5-2.5v-9.24c0-1.355 1.145-2.5 2.5-2.5h477c1.355 0 2.5 1.145 2.5 2.5v9.24z"/><path d="M295.967 146.336c9.615 2.998 10.364 3.748 13.357 13.374a9.837 9.837 0 0 0 9.438 6.95 9.836 9.836 0 0 0 9.437-6.947c2.996-9.63 3.745-10.38 13.359-13.377a9.843 9.843 0 0 0 6.943-9.439c0-4.35-2.79-8.143-6.943-9.438-9.614-2.997-10.363-3.747-13.357-13.37a9.836 9.836 0 0 0-9.439-6.956 9.837 9.837 0 0 0-9.437 6.951c-2.994 9.627-3.743 10.377-13.355 13.374a9.842 9.842 0 0 0-6.946 9.439 9.84 9.84 0 0 0 6.943 9.439zm22.795-16.248c1.804 2.853 3.956 5.005 6.809 6.81-2.852 1.805-5.004 3.958-6.809 6.81-1.803-2.852-3.957-5.005-6.809-6.81 2.853-1.805 5.005-3.958 6.809-6.81z"/><path d="M343.349 83.71c8.817 2.749 9.383 3.316 12.127 12.141a9.677 9.677 0 0 0 9.286 6.841 9.673 9.673 0 0 0 9.284-6.835c2.747-8.83 3.314-9.397 12.132-12.147a9.683 9.683 0 0 0 6.828-9.285 9.678 9.678 0 0 0-6.831-9.284c-8.816-2.749-9.382-3.316-12.128-12.14a9.677 9.677 0 0 0-9.286-6.844 9.678 9.678 0 0 0-9.284 6.838c-2.745 8.829-3.312 9.396-12.122 12.144a9.68 9.68 0 0 0-6.838 9.286 9.684 9.684 0 0 0 6.832 9.285zm21.413-14.778a20.316 20.316 0 0 0 5.492 5.493 20.316 20.316 0 0 0-5.492 5.493 20.316 20.316 0 0 0-5.492-5.493 20.33 20.33 0 0 0 5.492-5.493z"/></g></svg>