<svg xmlns="http://www.w3.org/2000/svg" width="512" height="512" viewBox="0 0 512 512"><g class="nc-icon-wrapper"><path d="M330.71 295.482V190.953c0-3.281 2.643-5.939 5.902-5.939h59.963C374.406 109.577 305.04 54.529 222.884 54.529c-100.027 0-181.115 81.596-181.115 182.25 0 16.219 2.117 31.939 6.067 46.906h223.916c3.661 0 6.628 2.986 6.628 6.672 0 8.353-.808 16.558-2.346 24.533a6.765 6.765 0 0 1 4.315 6.313c0 8.615-.852 17.074-2.462 25.293a6.817 6.817 0 0 1 3.427 5.922c0 21.938-5.399 42.893-15.162 61.366 42.755-10.548 79.552-36.36 104.345-71.382-22.517-3.597-39.787-23.264-39.787-46.92z" fill="#E6E9ED"/><path d="M75.063 283.685A183.584 183.584 0 0 1 69 236.779c0-96.045 73.833-174.733 167.5-181.739a182.62 182.62 0 0 0-13.616-.511c-100.027 0-181.115 81.596-181.115 182.25 0 16.219 2.117 31.939 6.067 46.906h27.227z" opacity=".1"/><path d="M271.752 283.685c2.722 0 5.059 1.653 6.079 4.016 12.265-13.394 19.763-31.273 19.763-50.922 0-41.52-33.449-75.178-74.71-75.178s-74.71 33.658-74.71 75.178c0 17.747 6.126 34.046 16.347 46.906h107.231z" fill="#FFF"/><path d="M498.598 185.014h-79.353c3.26 0 5.902 2.658 5.902 5.939v104.529a47.43 47.43 0 0 1-7.542 25.711c8.415 13.104 23.051 21.803 39.677 21.803 26.036 0 47.218-21.314 47.218-47.514V190.953c0-3.281-2.643-5.939-5.902-5.939z" fill="#D7F7FF"/><path d="M480.275 450.68c-1.033-14.003-10.928-24.986-22.993-24.986s-21.961 10.983-22.993 24.986h45.986z" fill="#B1E8FF"/><path d="M492.801 450.68h-71.039a5.003 5.003 0 0 0-4.157 2.236 4.96 4.96 0 0 1 .842 2.764v14.168a4.96 4.96 0 0 1-.842 2.764 5 5 0 0 0 4.157 2.236h71.039c2.75 0 5-2.25 5-5V455.68c0-2.75-2.25-5-5-5z" fill="#D7F7FF"/><path d="M377.928 342.996c-26.036 0-47.218-21.314-47.218-47.514V190.953c0-3.281 2.643-5.939 5.902-5.939h82.632c3.26 0 5.902 2.658 5.902 5.939v104.529c.001 26.2-21.181 47.514-47.218 47.514z" fill="#B1E8FF"/><path d="M352.563 295.482V190.953c0-3.281 2.643-5.939 5.902-5.939h-21.853c-3.26 0-5.902 2.658-5.902 5.939v104.529c0 26.199 21.182 47.514 47.218 47.514a46.88 46.88 0 0 0 10.927-1.298c-20.783-4.975-36.292-23.801-36.292-46.216z" opacity=".1"/><path d="M400.921 450.68c-1.032-14.003-10.927-24.986-22.993-24.986-12.065 0-21.96 10.983-22.993 24.986h45.986z" fill="#D7F7FF"/><path d="M418.448 469.848c0 2.75-2.25 5-5 5h-71.039c-2.75 0-5-2.25-5-5V455.68c0-2.75 2.25-5 5-5h71.039c2.75 0 5 2.25 5 5v14.168z" fill="#B1E8FF"/><path d="M15.19 314.435h258.434a6.68 6.68 0 0 1 2.411.455 129.504 129.504 0 0 0 2.346-24.533c0-3.685-2.968-6.672-6.628-6.672H17.062c-3.661 0-6.628 2.986-6.628 6.672 0 8.353.808 16.558 2.346 24.533a6.696 6.696 0 0 1 2.41-.455z" fill="#FF9F3D"/><path d="M15.19 314.435h25.062A129.524 129.524 0 0 1 38 290.357c0-3.685 2.968-6.672 6.628-6.672H17.062c-3.661 0-6.628 2.986-6.628 6.672 0 8.353.808 16.558 2.346 24.533a6.696 6.696 0 0 1 2.41-.455z" opacity=".1"/><path d="M14.274 345.602H274.54a6.7 6.7 0 0 1 3.347.895 131.418 131.418 0 0 0 2.462-25.293c0-3.738-3.011-6.768-6.726-6.768H15.19c-3.715 0-6.726 3.029-6.726 6.768 0 8.615.852 17.074 2.462 25.293a6.708 6.708 0 0 1 3.348-.895z" fill="#FCC96C"/><path d="M14.274 345.602h24.004A131.507 131.507 0 0 1 36 321.203c0-3.738 3.011-6.768 6.726-6.768H15.19c-3.715 0-6.726 3.029-6.726 6.768 0 8.615.852 17.074 2.462 25.293a6.718 6.718 0 0 1 3.348-.894z" opacity=".1" enable-background="new"/><path d="M254.177 432.42c17.254-22.371 27.138-50.29 27.138-80.002 0-3.766-3.033-6.816-6.774-6.816H14.274c-3.741 0-6.774 3.051-6.774 6.816 0 29.712 9.883 57.631 27.138 80.002h219.539z" fill="#FB8276"/><path d="M87.77 473.06c.819.34 1.694.514 2.581.514h108.113c.886 0 1.763-.174 2.581-.514 21.459-8.9 39.572-23.058 53.132-40.641H34.637c13.561 17.583 31.674 31.741 53.133 40.641z" fill="#EF5A50"/><path d="M35 352.418c0-3.766 3.033-6.816 6.774-6.816h-27.5c-3.741 0-6.774 3.051-6.774 6.816 0 53.064 31.507 100.42 80.27 120.642.819.34 1.694.514 2.581.514h27.5a6.727 6.727 0 0 1-2.581-.514C66.507 452.838 35 405.482 35 352.418z" opacity=".1"/><path d="M37.762 128.525a2.382 2.382 0 0 1-2.275-1.676c-3.732-12.004-6.298-14.57-18.287-18.309a2.385 2.385 0 0 1 0-4.556c11.989-3.738 14.555-6.305 18.287-18.309a2.381 2.381 0 0 1 4.55.001c3.734 12.004 6.297 14.57 18.288 18.309a2.387 2.387 0 0 1 0 4.556c-11.991 3.738-14.554 6.305-18.288 18.309a2.38 2.38 0 0 1-2.275 1.675z" fill="#FCC96C"/><path d="M463.663 156.158a2.383 2.383 0 0 1-2.275-1.676c-3.732-12.004-6.297-14.57-18.287-18.309a2.387 2.387 0 0 1 0-4.556c11.989-3.738 14.554-6.305 18.287-18.309a2.382 2.382 0 0 1 4.55 0c3.735 12.004 6.298 14.57 18.288 18.309a2.386 2.386 0 0 1 0 4.556c-11.99 3.738-14.553 6.305-18.288 18.309a2.38 2.38 0 0 1-2.275 1.676z" fill="#FCC96C"/><path d="M386.679 90.883a2.876 2.876 0 0 1-2.746-2.021c-4.504-14.486-7.6-17.584-22.068-22.094a2.88 2.88 0 1 1 0-5.5c14.468-4.51 17.563-7.607 22.068-22.094a2.876 2.876 0 0 1 5.492 0c4.507 14.486 7.6 17.584 22.069 22.094a2.88 2.88 0 1 1 0 5.5c-14.469 4.51-17.562 7.607-22.069 22.094a2.874 2.874 0 0 1-2.746 2.021z" fill="#FFAF68"/><path d="M512 295.482V190.953c0-7.41-6.012-13.439-13.402-13.439h-96.52C377.28 101.819 306.324 47.029 222.884 47.029c-104.003 0-188.615 85.121-188.615 189.75 0 13.511 1.433 26.688 4.115 39.406H17.062c-7.791 0-14.128 6.358-14.128 14.172 0 7.233.582 14.359 1.68 21.338-2.26 2.527-3.649 5.853-3.649 9.508 0 7.7.637 15.284 1.865 22.694A14.246 14.246 0 0 0 0 352.418c0 56.108 33.324 106.183 84.895 127.569a14.143 14.143 0 0 0 5.456 1.087h108.113c1.884 0 3.72-.366 5.454-1.086 29.199-12.109 52.541-33.419 67.304-59.809 39.7-10.598 74.302-33.908 99.206-65.337v64.413c-10.437 3.003-18.773 12.131-21.823 23.924h-6.196c-6.893 0-12.5 5.607-12.5 12.5v14.168c0 6.893 5.607 12.5 12.5 12.5h150.392c6.892 0 12.5-5.607 12.5-12.5V455.68c0-6.893-5.608-12.5-12.5-12.5h-6.196c-3.05-11.793-11.385-20.921-21.823-23.924v-69.289c26.634-3.69 47.218-26.709 47.218-54.485zM427.96 443.18h-20.708c-3.049-11.793-11.385-20.921-21.823-23.924v-69.289c12.6-1.745 23.838-7.816 32.191-16.674 8.348 8.852 19.572 14.924 32.163 16.67v69.293c-10.438 3.003-18.774 12.131-21.823 23.924zM497 295.482c0 22.064-17.817 40.014-39.718 40.014-12.4 0-23.474-5.769-30.762-14.769a54.889 54.889 0 0 0 6.126-25.245V270c0-4.143-3.358-7.5-7.5-7.5s-7.5 3.357-7.5 7.5v25.482c0 22.064-17.818 40.014-39.719 40.014-21.9 0-39.718-17.95-39.718-40.014V192.514h79.437v37.485c0 4.143 3.358 7.5 7.5 7.5s7.5-3.357 7.5-7.5v-37.485H497v102.968zm-226.122-4.297c-.036 5.324-.43 10.58-1.142 15.75H19.078a121.583 121.583 0 0 1-1.142-15.75h252.942zm-81.879 61.917c4.142 0 7.5-3.357 7.5-7.5s-3.358-7.5-7.5-7.5H17.136a123.342 123.342 0 0 1-1.169-16.166h256.881a123.342 123.342 0 0 1-1.169 16.166h-42.68c-4.142 0-7.5 3.357-7.5 7.5s3.358 7.5 7.5 7.5h44.813c-.144 26.479-8.61 51.419-23.395 71.818H38.397c-14.785-20.399-23.251-45.339-23.396-71.818h173.998zm9.313 112.972H90.502a122.335 122.335 0 0 1-39.24-26.154h186.291a122.356 122.356 0 0 1-39.241 26.154zm81.45-64.199c5.881-15.474 9.053-32.177 9.053-49.457 0-3.193-1.061-6.136-2.83-8.52a138.779 138.779 0 0 0 1.865-22.695c0-3.654-1.389-6.981-3.649-9.508a137.22 137.22 0 0 0 1.68-21.338c0-.166-.019-.327-.025-.492 12-14.373 19.239-32.893 19.239-53.086 0-21.284-8.024-41.503-22.593-56.931a7.5 7.5 0 1 0-10.907 10.299c11.929 12.632 18.499 29.193 18.499 46.632 0 15.116-4.968 29.072-13.321 40.348a13.992 13.992 0 0 0-5.021-.942H168.298a67.567 67.567 0 0 1-12.624-39.406c0-37.317 30.15-67.678 67.21-67.678a67 67 0 0 1 17.191 2.232 7.497 7.497 0 0 0 9.174-5.322 7.5 7.5 0 0 0-5.323-9.174 82.002 82.002 0 0 0-21.043-2.736c-45.331 0-82.21 37.089-82.21 82.678 0 14.264 3.623 27.686 9.976 39.406H53.75a175.559 175.559 0 0 1-4.481-39.406c0-96.357 77.883-174.75 173.615-174.75 75.071 0 139.159 48.21 163.329 115.484h-49.6c-7.39 0-13.402 6.029-13.402 13.439v104.529c0 23.191 14.353 43.061 34.59 51.141-20.198 25.086-47.149 44.439-78.039 55.253zm98.166 31.318c5.744 0 10.802 4.006 13.506 9.986h-27.011c2.704-5.98 7.762-9.986 13.505-9.986zm-33.019 24.987h66.039v9.168h-66.039v-9.168zm145.392 9.168h-64.353v-9.168h64.353v9.168zm-19.513-24.168h-27.011c2.704-5.98 7.762-9.986 13.505-9.986 5.743-.001 10.801 4.005 13.506 9.986z"/><path d="M14.967 115.701c9.615 2.998 10.364 3.748 13.356 13.37a9.836 9.836 0 0 0 9.438 6.954 9.836 9.836 0 0 0 9.437-6.948c2.995-9.629 3.745-10.379 13.36-13.376a9.844 9.844 0 0 0 6.941-9.439c0-4.35-2.79-8.142-6.942-9.438-9.614-2.997-10.364-3.747-13.358-13.373a9.837 9.837 0 0 0-9.438-6.951 9.835 9.835 0 0 0-9.437 6.949c-2.994 9.627-3.743 10.377-13.356 13.374a9.842 9.842 0 0 0-6.946 9.439 9.843 9.843 0 0 0 6.945 9.439zm22.795-16.248c1.804 2.853 3.957 5.005 6.809 6.81-2.852 1.805-5.004 3.957-6.808 6.81-1.804-2.852-3.957-5.005-6.809-6.81 2.852-1.805 5.004-3.957 6.808-6.81z"/><path d="M440.868 143.334c9.615 2.998 10.364 3.748 13.357 13.374a9.837 9.837 0 0 0 9.438 6.95 9.836 9.836 0 0 0 9.437-6.947c2.996-9.63 3.745-10.38 13.359-13.377a9.843 9.843 0 0 0 6.943-9.439c0-4.35-2.79-8.143-6.943-9.438-9.614-2.997-10.363-3.747-13.357-13.37a9.836 9.836 0 0 0-9.439-6.956 9.837 9.837 0 0 0-9.437 6.951c-2.994 9.627-3.743 10.377-13.355 13.374a9.842 9.842 0 0 0-6.946 9.438 9.84 9.84 0 0 0 6.943 9.44zm22.796-16.248c1.804 2.853 3.956 5.005 6.809 6.81-2.852 1.805-5.004 3.958-6.809 6.81-1.803-2.852-3.957-5.005-6.809-6.81 2.852-1.805 5.004-3.957 6.809-6.81z"/><path d="M359.633 73.928c12.092 3.77 13.373 5.052 17.138 17.16a10.329 10.329 0 0 0 9.908 7.295c4.571 0 8.553-2.933 9.907-7.293 3.768-12.11 5.05-13.394 17.143-17.163 4.358-1.36 7.287-5.342 7.287-9.909s-2.929-8.549-7.29-9.91c-12.09-3.768-13.372-5.052-17.139-17.157a10.326 10.326 0 0 0-9.908-7.298 10.328 10.328 0 0 0-9.907 7.295c-3.765 12.108-5.046 13.391-17.139 17.16a10.334 10.334 0 0 0-7.29 9.91c0 4.568 2.929 8.55 7.29 9.91zm27.047-21.285c2.759 5.211 6.163 8.615 11.372 11.375-5.208 2.761-8.612 6.164-11.372 11.375-2.759-5.21-6.163-8.614-11.373-11.375 5.211-2.761 8.614-6.164 11.373-11.375z"/></g></svg>