<?xml version="1.0" encoding="iso-8859-1"?>
<!-- Generator: Adobe Illustrator 16.0.0, SVG Export Plug-In . SVG Version: 6.00 Build 0)  -->
<!DOCTYPE svg PUBLIC "-//W3C//DTD SVG 1.1//EN" "http://www.w3.org/Graphics/SVG/1.1/DTD/svg11.dtd">
<svg version="1.1" id="Capa_1" xmlns="http://www.w3.org/2000/svg" xmlns:xlink="http://www.w3.org/1999/xlink" x="0px" y="0px"
	 width="792px" height="792px" viewBox="0 0 792 792" style="enable-background:new 0 0 792 792;" xml:space="preserve">
<g>
	<g>
		<g>
			<path d="M513.906,792H278.132c-30.874,0-59.113-24.926-63.029-55.536l-64.535-508.295c-1.958-15.663,2.447-30.498,12.425-41.793
				c9.978-11.295,24.134-17.545,39.873-17.545h386.418c15.738,0,29.896,6.25,39.873,17.545
				c9.978,11.333,14.383,26.168,12.388,41.793L577.01,736.464C573.057,767.074,544.78,792,513.906,792z M202.829,198.988
				c-6.965,0-13.103,2.561-17.244,7.305s-6.024,11.145-5.158,18.11l64.572,508.258c1.996,15.852,17.169,29.18,33.133,29.18h235.812
				c15.964,0,31.138-13.328,33.134-29.18l64.534-508.296c0.866-6.928-0.903-13.328-5.083-18.035
				c-4.179-4.707-10.278-7.305-17.244-7.305H202.829V198.988z"/>
			<path d="M616.958,147.82H175.042c-21.838,0-39.609-18.374-39.609-40.965s17.771-40.965,39.609-40.965h156.819
				C332.35,29.481,360.928,0,396.019,0c35.053,0,63.593,29.481,64.121,65.89h156.818c21.838,0,39.609,18.374,39.609,40.965
				S638.796,147.82,616.958,147.82z M175.042,96.049c-5.233,0-9.488,4.857-9.488,10.806c0,5.949,4.255,10.806,9.488,10.806H616.92
				c5.234,0,9.488-4.857,9.488-10.806c0-5.949-4.254-10.806-9.488-10.806H443.008c-4.706,0-9.111-2.221-11.973-5.911
				c-2.862-3.69-3.766-8.584-2.561-13.103c1.017-3.841,1.544-7.154,1.544-10.204c0-20.256-15.249-36.71-34-36.71
				c-18.789,0-34.075,16.454-34.075,36.71c0,2.937,0.489,6.212,1.581,10.279c1.205,4.518,0.226,9.337-2.635,13.027
				c-2.862,3.728-7.267,5.911-11.936,5.911H175.042z"/>
		</g>
		<g>
			<path d="M294.774,724.001c-7.455,0-13.969-5.534-14.91-13.178l-56.477-442.405c-1.054-8.284,4.782-15.814,13.027-16.831
				c8.095-1.431,15.813,4.744,16.868,12.99l56.478,442.405c1.054,8.284-4.782,15.814-13.027,16.831
				C296.092,723.964,295.452,724.001,294.774,724.001z"/>
			<path d="M484.65,724.001c-0.64,0-1.28-0.037-1.92-0.15c-8.246-1.017-14.082-8.584-13.027-16.83l56.478-442.405
				c1.054-8.284,8.772-14.496,16.867-13.028c8.246,1.017,14.082,8.584,13.027,16.831l-56.477,442.405
				C498.619,718.429,492.144,724.001,484.65,724.001z"/>
			<path d="M387.359,724.001c-8.321,0-15.061-6.777-15.061-15.061V266.498c0-8.321,6.74-15.061,15.061-15.061
				c8.321,0,15.061,6.777,15.061,15.061v442.406C402.42,717.224,395.68,724.001,387.359,724.001z"/>
		</g>
	</g>
</g>
<g>
</g>
<g>
</g>
<g>
</g>
<g>
</g>
<g>
</g>
<g>
</g>
<g>
</g>
<g>
</g>
<g>
</g>
<g>
</g>
<g>
</g>
<g>
</g>
<g>
</g>
<g>
</g>
<g>
</g>
</svg>
